<svg xmlns="http://www.w3.org/2000/svg" version="1.1" xmlns:xlink="http://www.w3.org/1999/xlink" xmlns:svgjs="http://svgjs.dev/svgjs" width="1440" height="560" preserveAspectRatio="none" viewBox="0 0 1440 560">
    <g mask="url(&quot;#SvgjsMask1001&quot;)" fill="none">
        <rect width="1440" height="560" x="0" y="0" fill="rgba(95, 179, 179, 1)"></rect>
        <path d="M0,592.236C108.81,602.886,200.372,512.374,284.108,442.08C359.785,378.551,418.742,299.803,456.916,208.667C494.2,119.654,515.34,23.376,499.352,-71.796C483.576,-165.709,434.946,-251.117,368.259,-319.098C304.092,-384.511,215.741,-411.545,131.261,-447.033C35.706,-487.173,-55.724,-552.261,-158.692,-540.455C-267.987,-527.923,-389.368,-479.024,-440.274,-381.5C-491.276,-283.791,-403.581,-168.983,-410.028,-58.953C-415.673,37.39,-507.681,126.153,-475.348,217.084C-443.032,307.969,-326.199,329.997,-250.48,389.755C-164.461,457.643,-109.06,581.561,0,592.236" fill="#479595"></path>
        <path d="M1440 1026.818C1565.752 1034.479 1688.628 1179.408 1798.815 1118.326 1906.646 1058.55 1874.5439999999999 891.12 1901.725 770.863 1923.154 676.0550000000001 1939.026 585.097 1941.301 487.924 1944.021 371.744 1980.46 244.17399999999998 1916.3229999999999 147.26299999999998 1851.056 48.644000000000005 1723.699 13.057000000000016 1608.72-14.607999999999947 1497.771-41.303 1380.075-47.928 1273.387-7.432000000000016 1170.701 31.54499999999996 1111.075 130.575 1030.2640000000001 204.961 937.2860000000001 290.546 796.657 340.892 762.729 462.623 728.419 585.727 794.421 714.8340000000001 857.119 826.193 916.271 931.2529999999999 994.2180000000001 1037.017 1108.222 1076.257 1216.134 1113.4 1326.086 1019.879 1440 1026.818" fill="#84c5c5"></path>
    </g>
    <defs>
        <mask id="SvgjsMask1001">
            <rect width="1440" height="560" fill="#ffffff"></rect>
        </mask>
    </defs>
</svg>