<svg xmlns="http://www.w3.org/2000/svg" version="1.1" xmlns:xlink="http://www.w3.org/1999/xlink" xmlns:svgjs="http://svgjs.dev/svgjs" width="1440" height="560" preserveAspectRatio="none" viewBox="0 0 1440 560">
    <g mask="url(&quot;#SvgjsMask1005&quot;)" fill="none">
        <rect width="1440" height="560" x="0" y="0" fill="rgba(95, 179, 179, 1)"></rect>
        <path d="M177 162L176 436" stroke-width="10" stroke="url(&quot;#SvgjsLinearGradient1006&quot;)" stroke-linecap="round" class="Down"></path>
        <path d="M696 496L695 728" stroke-width="8" stroke="url(&quot;#SvgjsLinearGradient1007&quot;)" stroke-linecap="round" class="Up"></path>
        <path d="M1320 211L1319 -109" stroke-width="8" stroke="url(&quot;#SvgjsLinearGradient1006&quot;)" stroke-linecap="round" class="Down"></path>
        <path d="M773 264L772 670" stroke-width="8" stroke="url(&quot;#SvgjsLinearGradient1006&quot;)" stroke-linecap="round" class="Down"></path>
        <path d="M318 363L317 548" stroke-width="10" stroke="url(&quot;#SvgjsLinearGradient1007&quot;)" stroke-linecap="round" class="Up"></path>
        <path d="M1209 457L1208 252" stroke-width="6" stroke="url(&quot;#SvgjsLinearGradient1007&quot;)" stroke-linecap="round" class="Up"></path>
        <path d="M1386 415L1385 702" stroke-width="8" stroke="url(&quot;#SvgjsLinearGradient1006&quot;)" stroke-linecap="round" class="Down"></path>
        <path d="M1061 367L1060 585" stroke-width="8" stroke="url(&quot;#SvgjsLinearGradient1006&quot;)" stroke-linecap="round" class="Down"></path>
        <path d="M1168 532L1167 155" stroke-width="6" stroke="url(&quot;#SvgjsLinearGradient1007&quot;)" stroke-linecap="round" class="Up"></path>
        <path d="M26 114L25 -240" stroke-width="10" stroke="url(&quot;#SvgjsLinearGradient1006&quot;)" stroke-linecap="round" class="Down"></path>
        <path d="M33 364L32 680" stroke-width="10" stroke="url(&quot;#SvgjsLinearGradient1007&quot;)" stroke-linecap="round" class="Up"></path>
        <path d="M779 174L778 592" stroke-width="10" stroke="url(&quot;#SvgjsLinearGradient1007&quot;)" stroke-linecap="round" class="Up"></path>
        <path d="M1037 495L1036 299" stroke-width="10" stroke="url(&quot;#SvgjsLinearGradient1006&quot;)" stroke-linecap="round" class="Down"></path>
        <path d="M302 256L301 108" stroke-width="8" stroke="url(&quot;#SvgjsLinearGradient1007&quot;)" stroke-linecap="round" class="Up"></path>
        <path d="M1118 488L1117 103" stroke-width="8" stroke="url(&quot;#SvgjsLinearGradient1007&quot;)" stroke-linecap="round" class="Up"></path>
        <path d="M802 402L801 688" stroke-width="6" stroke="url(&quot;#SvgjsLinearGradient1006&quot;)" stroke-linecap="round" class="Down"></path>
        <path d="M712 258L711 9" stroke-width="8" stroke="url(&quot;#SvgjsLinearGradient1007&quot;)" stroke-linecap="round" class="Up"></path>
        <path d="M124 459L123 688" stroke-width="8" stroke="url(&quot;#SvgjsLinearGradient1006&quot;)" stroke-linecap="round" class="Down"></path>
        <path d="M1037 29L1036 400" stroke-width="8" stroke="url(&quot;#SvgjsLinearGradient1007&quot;)" stroke-linecap="round" class="Up"></path>
        <path d="M1415 447L1414 836" stroke-width="6" stroke="url(&quot;#SvgjsLinearGradient1006&quot;)" stroke-linecap="round" class="Down"></path>
        <path d="M1343 97L1342 244" stroke-width="8" stroke="url(&quot;#SvgjsLinearGradient1006&quot;)" stroke-linecap="round" class="Down"></path>
        <path d="M45 537L44 882" stroke-width="8" stroke="url(&quot;#SvgjsLinearGradient1007&quot;)" stroke-linecap="round" class="Up"></path>
        <path d="M1028 383L1027 663" stroke-width="10" stroke="url(&quot;#SvgjsLinearGradient1007&quot;)" stroke-linecap="round" class="Up"></path>
        <path d="M431 99L430 269" stroke-width="8" stroke="url(&quot;#SvgjsLinearGradient1007&quot;)" stroke-linecap="round" class="Up"></path>
        <path d="M200 271L199 555" stroke-width="6" stroke="url(&quot;#SvgjsLinearGradient1007&quot;)" stroke-linecap="round" class="Up"></path>
        <path d="M1306 268L1305 46" stroke-width="10" stroke="url(&quot;#SvgjsLinearGradient1007&quot;)" stroke-linecap="round" class="Up"></path>
        <path d="M594 404L593 620" stroke-width="10" stroke="url(&quot;#SvgjsLinearGradient1006&quot;)" stroke-linecap="round" class="Down"></path>
        <path d="M496 454L495 753" stroke-width="10" stroke="url(&quot;#SvgjsLinearGradient1007&quot;)" stroke-linecap="round" class="Up"></path>
        <path d="M1393 222L1392 -171" stroke-width="8" stroke="url(&quot;#SvgjsLinearGradient1006&quot;)" stroke-linecap="round" class="Down"></path>
        <path d="M983 322L982 97" stroke-width="10" stroke="url(&quot;#SvgjsLinearGradient1007&quot;)" stroke-linecap="round" class="Up"></path>
        <path d="M632 7L631 -267" stroke-width="10" stroke="url(&quot;#SvgjsLinearGradient1006&quot;)" stroke-linecap="round" class="Down"></path>
        <path d="M274 160L273 534" stroke-width="10" stroke="url(&quot;#SvgjsLinearGradient1006&quot;)" stroke-linecap="round" class="Down"></path>
        <path d="M479 328L478 614" stroke-width="10" stroke="url(&quot;#SvgjsLinearGradient1006&quot;)" stroke-linecap="round" class="Down"></path>
        <path d="M347 397L346 121" stroke-width="6" stroke="url(&quot;#SvgjsLinearGradient1007&quot;)" stroke-linecap="round" class="Up"></path>
        <path d="M888 112L887 -140" stroke-width="6" stroke="url(&quot;#SvgjsLinearGradient1007&quot;)" stroke-linecap="round" class="Up"></path>
        <path d="M1127 190L1126 -106" stroke-width="6" stroke="url(&quot;#SvgjsLinearGradient1006&quot;)" stroke-linecap="round" class="Down"></path>
    </g>
    <defs>
        <mask id="SvgjsMask1005">
            <rect width="1440" height="560" fill="#ffffff"></rect>
        </mask>
        <linearGradient x1="0%" y1="0%" x2="0%" y2="100%" id="SvgjsLinearGradient1006">
            <stop stop-color="rgba(27, 145, 145, 0)" offset="0"></stop>
            <stop stop-color="rgba(27, 145, 145, 1)" offset="1"></stop>
        </linearGradient>
        <linearGradient x1="0%" y1="100%" x2="0%" y2="0%" id="SvgjsLinearGradient1007">
            <stop stop-color="rgba(27, 145, 145, 0)" offset="0"></stop>
            <stop stop-color="rgba(27, 145, 145, 1)" offset="1"></stop>
        </linearGradient>
    </defs>
</svg>