<svg xmlns="http://www.w3.org/2000/svg" version="1.1" xmlns:xlink="http://www.w3.org/1999/xlink" xmlns:svgjs="http://svgjs.dev/svgjs" width="1440" height="560" preserveAspectRatio="none" viewBox="0 0 1440 560">
    <g mask="url(&quot;#SvgjsMask1003&quot;)" fill="none">
        <rect width="1440" height="560" x="0" y="0" fill="rgba(95, 179, 179, 1)"></rect>
        <path d="M217 0C251.89 10.83 253.36 16.56 280 43.45C322.7 86.56 319.07 90.81 355.68 140C389.07 184.86 376.05 201.42 420 231.54C478.21 271.42 552.75 237.06 560 280C568.66 331.29 451.82 362.1 451.82 420C451.82 459.77 512.02 475.35 560 475.35C587.74 475.35 603.27 451.65 603.27 420C603.27 353.98 581.63 350 560 280C560 280 560 280 560 280C556.11 210 578.35 201.55 552.22 140C518.91 61.55 438.79 42.04 441.13 0C442.68 -27.96 500.57 0 560 0C630 0 630 0 700 0C770 0 770 0 840 0C894.44 0 897.23 -8.47 948.89 0C967.23 3.01 963.71 22.95 980 22.95C999.86 22.95 998.57 3.71 1021.18 0C1068.57 -7.77 1070.59 0 1120 0C1190 0 1190 0 1260 0C1327.63 0 1395.25 -25.25 1395.25 0C1395.25 33.43 1335.4 98.18 1260 117.35C1197.77 133.18 1179.14 62.75 1120 70C1086.74 74.08 1101.92 108.47 1075.2 140C1031.92 191.07 1027.3 187.31 980 235.2C958.16 257.31 936.92 255.58 936.92 280C936.92 310.92 947.67 340.31 980 345.88C1039.21 356.08 1052.89 335.23 1120 311.55C1146.23 302.29 1146.57 299.49 1166.67 280C1216.57 231.62 1201.71 200.53 1260 175.81C1318.38 151.05 1333.51 192.37 1400 181.03C1438.51 174.46 1469.25 171.15 1470 140C1471.44 80.64 1385.73 37.29 1404.38 0C1420.73 -32.71 1506.63 -34.44 1540 0C1574.44 35.56 1540 70 1540 140C1540 210 1540 210 1540 280C1540 350 1540 350 1540 420C1540 490 1575 525 1540 560C1505 595 1470 560 1400 560C1386 560 1385.97 560.77 1372 560C1315.97 556.93 1315.14 561.64 1260 552.33C1189.14 540.37 1189.28 515.5 1120 517.47C1054.67 519.33 1055.64 540.29 990.77 560C985.64 561.56 985.38 560 980 560C910 560 910 560 840 560C774.61 560 770.45 567.12 709.21 560C700.45 558.98 706.39 543.72 700 543.72C690.49 543.72 690.83 558.44 677.42 560C620.83 566.58 618.71 560 560 560C490 560 490 560 420 560C350 560 350 560 280 560C225 560 220.68 570.61 170 560C150.68 555.96 156.09 530.7 140 530.7C120.77 530.7 122.82 555.09 99.35 560C52.82 569.74 27.99 581.69 0 560C-21.69 543.19 -11.92 517.44 0 483C12.31 447.44 42.25 456.64 48.46 420C59.45 355.14 53.03 343.26 34.39 280C28.8 261.01 4.6 274.24 0 255.5C-12.59 204.24 0 197.75 0 140C0 70 -35 35 0 0C35 -35 70 0 140 0C178.5 0 181.89 -10.9 217 0" stroke="rgba(36, 163, 163, 1)" stroke-width="2"></path>
        <path d="M0 39.3C40.81 14.36 76.88 29.42 140 54.44C203.92 79.77 196.2 98.48 254.07 140C266.2 148.71 270.03 143.93 280 154.89C333.69 213.93 357.59 209.22 381.38 280C402.14 341.77 358.35 353.28 369.09 420C377.66 473.28 378.31 490.14 420 520C473.77 558.51 490.42 537.48 560 556.74C562.68 557.48 564.52 559.1 564.52 560C564.52 560.73 562.26 560 560 560C490 560 490 560 420 560C350 560 350 560 280 560C266.66 560 263.42 567.98 253.33 560C193.42 512.63 195.47 505.75 140 449.3C126.69 435.75 120.45 437.94 115.77 420C98.35 353.29 127.39 336.85 95.79 280C69.51 232.72 29.75 255.23 0 211.75C-18.15 185.23 0 175.88 0 140C0 89.65 -29.19 57.14 0 39.3" stroke="rgba(36, 163, 163, 1)" stroke-width="2"></path>
        <path d="M560 63.64C535.88 30.15 507.17 19.42 507.17 0C507.17 -12.4 533.59 0 560 0C630 0 630 0 700 0C770 0 770 0 840 0C855.56 0 871.11 -10.98 871.11 0C871.11 32.77 854.85 43.52 840 87.5C831.22 113.52 823.85 114.95 823.85 140C823.85 153.2 833.68 151.03 840 164C867.78 221.03 892.05 221.72 892.05 280C892.05 341.23 873.27 348.23 840 403.03C830.77 418.23 807.06 412.74 807.06 420C807.06 426.82 822.94 431.2 840 431.2C886.08 431.2 886.66 425.56 933.33 420C956.66 417.22 957.73 421.57 980 414.51C1051.06 391.99 1053.87 395.12 1120 360.85C1183.66 327.86 1181.82 322.76 1239.58 280C1251.82 270.94 1245.69 260.66 1260 257.21C1325.9 241.35 1333.24 233.99 1400 241.38C1436.18 245.39 1433.28 260.14 1465.88 280C1503.28 302.78 1522.06 292.78 1540 326.67C1559.12 362.78 1540 373.34 1540 420C1540 490 1567.36 517.36 1540 560C1522.44 587.36 1469.44 587.33 1450.15 560C1420.03 517.33 1457.2 486.37 1441.18 420C1432.13 382.5 1419.53 352.26 1400 352.26C1381.15 352.26 1389.82 392.39 1364.41 420C1319.82 468.45 1319.08 491.53 1260 504.38C1196.87 518.11 1189.34 491.28 1120 473.16C1049.34 454.69 1028.18 408.79 980 431.2C934.84 452.21 974.97 521.7 933.33 560C904.97 586.1 886.66 560 840 560C797.63 560 785.38 581.01 755.26 560C715.38 532.18 729.87 509.67 700 462.33C685.7 439.67 666.91 444.35 666.91 420C666.91 366.31 681.48 362.35 700 306.25C704.59 292.35 713.13 291.35 713.13 280C713.13 273.94 704.68 277.66 700 271.43C652.11 207.66 652.81 206.51 608 140C582.81 102.61 586.3 100.15 560 63.64" stroke="rgba(36, 163, 163, 1)" stroke-width="2"></path>
        <path d="M866.25 140C866.25 112.44 929.25 80.33 980 80.33C1010.39 80.33 1028.53 111.41 1028.53 140C1028.53 165.51 1008.96 188.53 980 188.53C927.82 188.53 866.25 166.54 866.25 140" stroke="rgba(36, 163, 163, 1)" stroke-width="2"></path>
        <path d="M1260 65.88C1196.47 65.88 1124.24 17.34 1124.24 0C1124.24 -15.6 1192.12 0 1260 0C1297.97 0 1335.93 -14.17 1335.93 0C1335.93 18.77 1302.32 65.88 1260 65.88" stroke="rgba(36, 163, 163, 1)" stroke-width="2"></path>
        <path d="M1540 115.11C1517.74 115.11 1459.06 36.54 1459.06 0C1459.06 -21.02 1523.29 -23.76 1540 0C1563.76 33.79 1558.21 115.11 1540 115.11" stroke="rgba(36, 163, 163, 1)" stroke-width="2"></path>
        <path d="M0 100.7C44.78 100.7 117.89 122.96 117.89 140C117.89 156.61 47.88 168 0 168C-11.06 168 0 154 0 140C0 120.35 -14.16 100.7 0 100.7" stroke="rgba(36, 163, 163, 1)" stroke-width="2"></path>
        <path d="M658 140C623.13 72.4 584.3 41.79 596.84 0C605.3 -28.21 648.42 0 700 0C733.8 0 758.4 -22.74 767.59 0C786.67 47.26 777.83 76.99 756.54 140C744.04 176.99 726.09 200 700 200C676.82 200 674.71 172.4 658 140" stroke="rgba(36, 163, 163, 1)" stroke-width="2"></path>
        <path d="M975.63 140C975.63 138.94 978.05 137.7 980 137.7C981.17 137.7 981.87 138.9 981.87 140C981.87 140.98 981.12 141.87 980 141.87C978 141.87 975.63 141.02 975.63 140" stroke="rgba(36, 163, 163, 1)" stroke-width="2"></path>
        <path d="M1260 14.41C1246.1 14.41 1230.3 3.79 1230.3 0C1230.3 -3.41 1245.15 0 1260 0C1268.3 0 1276.61 -3.1 1276.61 0C1276.61 4.1 1269.26 14.41 1260 14.41" stroke="rgba(36, 163, 163, 1)" stroke-width="2"></path>
        <path d="M1540 37.33C1532.78 37.33 1513.75 11.85 1513.75 0C1513.75 -6.82 1534.58 -7.71 1540 0C1547.71 10.96 1545.91 37.33 1540 37.33" stroke="rgba(36, 163, 163, 1)" stroke-width="2"></path>
        <path d="M180.83 280C192.43 238.94 235.78 229.36 280 229.36C305.88 229.36 317 249.85 321.03 280C329.73 345.17 320 351.97 305.45 420C299.48 447.89 297.28 471.85 280 471.85C257.63 471.85 242.85 452.31 226.15 420C193.27 356.39 165.5 334.26 180.83 280" stroke="rgba(36, 163, 163, 1)" stroke-width="2"></path>
        <path d="M822.5 280C822.5 271.87 832.91 264 840 264C845.25 264 847.18 271.96 847.18 280C847.18 288.45 845.31 296.97 840 296.97C832.97 296.97 822.5 288.36 822.5 280" stroke="rgba(36, 163, 163, 1)" stroke-width="2"></path>
        <path d="M1095 420C1095 415.29 1107.68 415.51 1120 410.14C1190.18 379.56 1200.46 344.94 1260 348.11C1293 349.87 1305.08 387.82 1305.08 420C1305.08 441.98 1286.73 455.16 1260 456.44C1194.19 459.59 1189.57 444.22 1120 428.86C1107.07 426 1095 424.65 1095 420" stroke="rgba(36, 163, 163, 1)" stroke-width="2"></path>
        <path d="M1509.8 420C1514.1 400.74 1531.05 391.48 1540 391.48C1546.15 391.48 1540 405.74 1540 420C1540 490 1554.82 504.82 1540 560C1536.02 574.82 1505.58 574.81 1502.39 560C1490.48 504.81 1495.29 485 1509.8 420" stroke="rgba(36, 163, 163, 1)" stroke-width="2"></path>
        <path d="M801.32 560C801.32 541.03 820 501.2 840 501.2C860.64 501.2 882.61 541.47 882.61 560C882.61 570.87 861.31 560 840 560C820.66 560 801.32 570.43 801.32 560" stroke="rgba(36, 163, 163, 1)" stroke-width="2"></path>
    </g>
    <defs>
        <mask id="SvgjsMask1003">
            <rect width="1440" height="560" fill="#ffffff"></rect>
        </mask>
    </defs>
</svg>